<svg version="1" xmlns="http://www.w3.org/2000/svg" width="400" height="400" viewBox="0 0 300.000000 300.000000"><path d="M85.9 42.8L43.2 85.5l20.3 20c11.2 11 20.4 20.3 20.4 20.7.1.3-9.6 10.3-21.4 22.1C48.4 162.4 41 170.5 41 171.8c0 1.4 20.4 22.5 63.1 65.1l63 63.1h4.2c4.2 0 4.2 0 46-41.8 26.9-26.9 41.7-42.4 41.7-43.7 0-1.3-8-10-21.7-23.7l-21.7-21.7 20.2-20.2c11.1-11.1 20.2-20.5 20.2-20.9 0-.6-119.6-120.8-125.6-126.2-1.8-1.6-3.8.2-44.5 41zm66.2 71.6l15 14.9-20.3 20.3c-11.2 11.2-20.3 21.1-20.3 22.1-.1 2.6 42.4 45.3 45 45.3 1.3 0 9.4-7.5 22.3-20.4l20.3-20.4 19 19c10.4 10.5 18.9 19.3 18.9 19.5 0 .9-79.7 80.3-80.6 80.3-.5 0-28.6-27.7-62.4-61.5L47.5 172 88 131.5 128.5 91l4.3 4.3c2.4 2.3 11.1 10.9 19.3 19.1z"/></svg>