<?xml version="1.0" encoding="UTF-8"?><!DOCTYPE svg PUBLIC "-//W3C//DTD SVG 1.1//EN" "http://www.w3.org/Graphics/SVG/1.1/DTD/svg11.dtd"><svg xmlns="http://www.w3.org/2000/svg"><symbol id="angle-down" viewBox="0 0 18 28"><path d="M16.797 11.5a.54.54 0 0 1-.156.359L9.36 19.14c-.094.094-.234.156-.359.156s-.266-.063-.359-.156l-7.281-7.281c-.094-.094-.156-.234-.156-.359s.063-.266.156-.359l.781-.781a.508.508 0 0 1 .359-.156.54.54 0 0 1 .359.156l6.141 6.141 6.141-6.141c.094-.094.234-.156.359-.156s.266.063.359.156l.781.781a.536.536 0 0 1 .156.359z"/></symbol><symbol id="angle-left" viewBox="0 0 11 28"><path d="M9.797 8.5a.54.54 0 0 1-.156.359L3.5 15l6.141 6.141c.094.094.156.234.156.359s-.063.266-.156.359l-.781.781c-.094.094-.234.156-.359.156s-.266-.063-.359-.156L.861 15.359C.767 15.265.705 15.125.705 15s.063-.266.156-.359L8.142 7.36c.094-.094.234-.156.359-.156s.266.063.359.156l.781.781a.508.508 0 0 1 .156.359z"/></symbol><symbol id="angle-right" viewBox="0 0 9 28"><path d="M9.297 15a.54.54 0 0 1-.156.359L1.86 22.64c-.094.094-.234.156-.359.156s-.266-.063-.359-.156l-.781-.781a.508.508 0 0 1-.156-.359.54.54 0 0 1 .156-.359L6.502 15 .361 8.859C.267 8.765.205 8.625.205 8.5s.063-.266.156-.359l.781-.781c.094-.094.234-.156.359-.156s.266.063.359.156l7.281 7.281a.536.536 0 0 1 .156.359z"/></symbol><symbol id="angle-up" viewBox="0 0 18 28"><path d="M16.797 18.5a.54.54 0 0 1-.156.359l-.781.781a.508.508 0 0 1-.359.156.54.54 0 0 1-.359-.156l-6.141-6.141L2.86 19.64c-.094.094-.234.156-.359.156s-.266-.063-.359-.156l-.781-.781c-.094-.094-.156-.234-.156-.359s.063-.266.156-.359l7.281-7.281c.094-.094.234-.156.359-.156s.266.063.359.156l7.281 7.281a.536.536 0 0 1 .156.359z"/></symbol><symbol id="arrow-down" viewBox="0 0 26 28"><path d="M25.172 13c0 .531-.219 1.047-.578 1.406L14.422 24.593c-.375.359-.891.578-1.422.578s-1.047-.219-1.406-.578L1.422 14.406C1.047 14.047.828 13.531.828 13s.219-1.047.594-1.422l1.156-1.172c.375-.359.891-.578 1.422-.578s1.047.219 1.406.578L10 15V4c0-1.094.906-2 2-2h2c1.094 0 2 .906 2 2v11l4.594-4.594c.359-.359.875-.578 1.406-.578s1.047.219 1.422.578l1.172 1.172c.359.375.578.891.578 1.422z"/></symbol><symbol id="arrow-left" viewBox="0 0 25 28"><path d="M24 14v2c0 1.062-.703 2-1.828 2h-11l4.578 4.594a1.96 1.96 0 0 1 0 2.812l-1.172 1.188c-.359.359-.875.578-1.406.578s-1.047-.219-1.422-.578L1.578 16.407C1.219 16.048 1 15.532 1 15.001s.219-1.047.578-1.422L11.75 3.423c.375-.375.891-.594 1.422-.594s1.031.219 1.406.594l1.172 1.156c.375.375.594.891.594 1.422s-.219 1.047-.594 1.422l-4.578 4.578h11c1.125 0 1.828.938 1.828 2z"/></symbol><symbol id="arrow-right" viewBox="0 0 23 28"><path d="M23 15a2.01 2.01 0 0 1-.578 1.422L12.25 26.594c-.375.359-.891.578-1.422.578s-1.031-.219-1.406-.578L8.25 25.422c-.375-.375-.594-.891-.594-1.422s.219-1.047.594-1.422L12.828 18h-11C.703 18 0 17.062 0 16v-2c0-1.062.703-2 1.828-2h11L8.25 7.406a1.96 1.96 0 0 1 0-2.812l1.172-1.172c.375-.375.875-.594 1.406-.594s1.047.219 1.422.594l10.172 10.172c.375.359.578.875.578 1.406z"/></symbol><symbol id="arrow-up" viewBox="0 0 26 28"><path d="M25.172 15.172c0 .531-.219 1.031-.578 1.406l-1.172 1.172c-.375.375-.891.594-1.422.594s-1.047-.219-1.406-.594L16 13.172v11C16 25.297 15.062 26 14 26h-2c-1.062 0-2-.703-2-1.828v-11L5.406 17.75a1.96 1.96 0 0 1-2.812 0l-1.172-1.172c-.375-.375-.594-.875-.594-1.406s.219-1.047.594-1.422L11.594 3.578C11.953 3.203 12.469 3 13 3s1.047.203 1.422.578L24.594 13.75c.359.375.578.891.578 1.422z"/></symbol><symbol id="calendar" viewBox="0 0 26 28"><path d="M2 26h4.5v-4.5H2V26zm5.5 0h5v-4.5h-5V26zM2 20.5h4.5v-5H2v5zm5.5 0h5v-5h-5v5zm-5.5-6h4.5V10H2v4.5zM13.5 26h5v-4.5h-5V26zm-6-11.5h5V10h-5v4.5zm12 11.5H24v-4.5h-4.5V26zm-6-5.5h5v-5h-5v5zM8 7V2.5c0-.266-.234-.5-.5-.5h-1c-.266 0-.5.234-.5.5V7c0 .266.234.5.5.5h1c.266 0 .5-.234.5-.5zm11.5 13.5H24v-5h-4.5v5zm-6-6h5V10h-5v4.5zm6 0H24V10h-4.5v4.5zM20 7V2.5c0-.266-.234-.5-.5-.5h-1c-.266 0-.5.234-.5.5V7c0 .266.234.5.5.5h1c.266 0 .5-.234.5-.5zm6-1v20c0 1.094-.906 2-2 2H2c-1.094 0-2-.906-2-2V6c0-1.094.906-2 2-2h2V2.5C4 1.125 5.125 0 6.5 0h1C8.875 0 10 1.125 10 2.5V4h6V2.5C16 1.125 17.125 0 18.5 0h1C20.875 0 22 1.125 22 2.5V4h2c1.094 0 2 .906 2 2z"/></symbol><symbol id="chain-broken" viewBox="0 0 26 28"><path d="M6.859 19.859l-4 4c-.109.094-.234.141-.359.141s-.25-.047-.359-.141a.53.53 0 0 1 0-.719l4-4a.53.53 0 0 1 .719 0 .53.53 0 0 1 0 .719zM9.5 20.5v5c0 .281-.219.5-.5.5s-.5-.219-.5-.5v-5c0-.281.219-.5.5-.5s.5.219.5.5zM6 17c0 .281-.219.5-.5.5h-5c-.281 0-.5-.219-.5-.5s.219-.5.5-.5h5c.281 0 .5.219.5.5zm19.75 2a4.408 4.408 0 0 1-1.328 3.172l-2.297 2.281c-.844.844-1.969 1.297-3.172 1.297s-2.344-.469-3.187-1.328l-5.219-5.234a4.378 4.378 0 0 1-.656-.875l3.734-.281 4.266 4.281c.562.562 1.563.578 2.125.016l2.297-2.281a1.484 1.484 0 0 0 0-2.109l-4.281-4.297.281-3.734c.313.187.609.391.875.656l5.25 5.25a4.516 4.516 0 0 1 1.313 3.187zM16.109 7.688l-3.734.281-4.266-4.281c-.281-.281-.656-.438-1.062-.438s-.781.156-1.062.422L3.688 5.953a1.484 1.484 0 0 0 0 2.109l4.281 4.281-.281 3.75a4.417 4.417 0 0 1-.875-.656l-5.25-5.25C.719 9.328.25 8.203.25 7s.469-2.328 1.328-3.172l2.297-2.281C4.719.703 5.844.25 7.047.25s2.344.469 3.187 1.328l5.219 5.234c.266.266.469.562.656.875zM26 9c0 .281-.219.5-.5.5h-5c-.281 0-.5-.219-.5-.5s.219-.5.5-.5h5c.281 0 .5.219.5.5zM17.5.5v5c0 .281-.219.5-.5.5s-.5-.219-.5-.5v-5c0-.281.219-.5.5-.5s.5.219.5.5zm6.359 2.359l-4 4c-.109.094-.234.141-.359.141s-.25-.047-.359-.141a.53.53 0 0 1 0-.719l4-4a.53.53 0 0 1 .719 0 .53.53 0 0 1 0 .719z"/></symbol><symbol id="chain" viewBox="0 0 26 28"><path d="M22.75 19c0-.406-.156-.781-.438-1.062l-3.25-3.25A1.516 1.516 0 0 0 18 14.25c-.453 0-.812.172-1.125.5.516.516 1.125.953 1.125 1.75a1.5 1.5 0 0 1-1.5 1.5c-.797 0-1.234-.609-1.75-1.125-.328.313-.516.672-.516 1.141 0 .391.156.781.438 1.062l3.219 3.234c.281.281.672.422 1.062.422s.781-.141 1.062-.406l2.297-2.281A1.48 1.48 0 0 0 22.75 19zM11.766 7.984a1.51 1.51 0 0 0-.438-1.062L8.109 3.688c-.281-.281-.672-.438-1.062-.438s-.781.156-1.062.422L3.688 5.953a1.484 1.484 0 0 0 0 2.109l3.25 3.25A1.5 1.5 0 0 0 8 11.734c.453 0 .812-.156 1.125-.484C8.609 10.734 8 10.297 8 9.5A1.5 1.5 0 0 1 9.5 8c.797 0 1.234.609 1.75 1.125.328-.313.516-.672.516-1.141zM25.75 19a4.468 4.468 0 0 1-1.328 3.172l-2.297 2.281a4.466 4.466 0 0 1-3.172 1.297 4.44 4.44 0 0 1-3.187-1.328l-3.219-3.234a4.466 4.466 0 0 1-1.297-3.172c0-1.234.5-2.406 1.375-3.266l-1.375-1.375A4.539 4.539 0 0 1 8 14.75a4.514 4.514 0 0 1-3.187-1.313l-3.25-3.25A4.454 4.454 0 0 1 .25 7c0-1.188.484-2.344 1.328-3.172l2.297-2.281A4.466 4.466 0 0 1 7.047.25a4.44 4.44 0 0 1 3.187 1.328l3.219 3.234a4.466 4.466 0 0 1 1.297 3.172c0 1.234-.5 2.406-1.375 3.266l1.375 1.375A4.539 4.539 0 0 1 18 11.25c1.188 0 2.344.469 3.187 1.313l3.25 3.25A4.454 4.454 0 0 1 25.75 19z"/></symbol><symbol id="check" viewBox="0 0 28 28"><path d="M26.109 8.844c0 .391-.156.781-.438 1.062L12.233 23.344c-.281.281-.672.438-1.062.438s-.781-.156-1.062-.438l-7.781-7.781c-.281-.281-.438-.672-.438-1.062s.156-.781.438-1.062l2.125-2.125c.281-.281.672-.438 1.062-.438s.781.156 1.062.438l4.594 4.609 10.25-10.266c.281-.281.672-.438 1.062-.438s.781.156 1.062.438l2.125 2.125c.281.281.438.672.438 1.062z"/></symbol><symbol id="cog" viewBox="0 0 24 28"><path d="M16 14c0-2.203-1.797-4-4-4s-4 1.797-4 4 1.797 4 4 4 4-1.797 4-4zm8-1.703v3.469c0 .234-.187.516-.438.562l-2.891.438a8.86 8.86 0 0 1-.609 1.422c.531.766 1.094 1.453 1.672 2.156.094.109.156.25.156.391s-.047.25-.141.359c-.375.5-2.484 2.797-3.016 2.797a.795.795 0 0 1-.406-.141l-2.156-1.687a9.449 9.449 0 0 1-1.422.594c-.109.953-.203 1.969-.453 2.906a.573.573 0 0 1-.562.438h-3.469c-.281 0-.531-.203-.562-.469l-.438-2.875a9.194 9.194 0 0 1-1.406-.578l-2.203 1.672c-.109.094-.25.141-.391.141s-.281-.063-.391-.172c-.828-.75-1.922-1.719-2.578-2.625a.607.607 0 0 1 .016-.718c.531-.719 1.109-1.406 1.641-2.141a8.324 8.324 0 0 1-.641-1.547l-2.859-.422A.57.57 0 0 1 0 15.705v-3.469c0-.234.187-.516.422-.562l2.906-.438c.156-.5.359-.969.609-1.437a37.64 37.64 0 0 0-1.672-2.156c-.094-.109-.156-.234-.156-.375s.063-.25.141-.359c.375-.516 2.484-2.797 3.016-2.797.141 0 .281.063.406.156L7.828 5.94a9.449 9.449 0 0 1 1.422-.594c.109-.953.203-1.969.453-2.906a.573.573 0 0 1 .562-.438h3.469c.281 0 .531.203.562.469l.438 2.875c.484.156.953.344 1.406.578l2.219-1.672c.094-.094.234-.141.375-.141s.281.063.391.156c.828.766 1.922 1.734 2.578 2.656a.534.534 0 0 1 .109.344c0 .141-.047.25-.125.359-.531.719-1.109 1.406-1.641 2.141.266.5.484 1.016.641 1.531l2.859.438a.57.57 0 0 1 .453.562z"/></symbol><symbol id="comment" viewBox="0 0 28 28"><path d="M28 14c0 5.531-6.266 10-14 10-.766 0-1.531-.047-2.266-.125-2.047 1.813-4.484 3.094-7.187 3.781-.562.156-1.172.266-1.781.344-.344.031-.672-.219-.75-.594v-.016c-.078-.391.187-.625.422-.906.984-1.109 2.109-2.047 2.844-4.656C2.063 20 .001 17.172.001 14c0-5.516 6.266-10 14-10s14 4.469 14 10z"/></symbol><symbol id="comments-o" viewBox="0 0 28 28"><path d="M11 6c-4.875 0-9 2.75-9 6 0 1.719 1.156 3.375 3.156 4.531l1.516.875-.547 1.313c.328-.187.656-.391.969-.609l.688-.484.828.156c.781.141 1.578.219 2.391.219 4.875 0 9-2.75 9-6s-4.125-6-9-6zm0-2c6.078 0 11 3.578 11 8s-4.922 8-11 8c-.953 0-1.875-.094-2.75-.25a13.114 13.114 0 0 1-4.344 2 11.58 11.58 0 0 1-1.344.25h-.047c-.234 0-.453-.187-.5-.453-.063-.297.141-.484.313-.688.609-.688 1.297-1.297 1.828-2.594C1.625 16.796 0 14.531 0 11.999c0-4.422 4.922-8 11-8zm12.844 18.266c.531 1.297 1.219 1.906 1.828 2.594.172.203.375.391.313.688-.063.281-.297.484-.547.453a11.58 11.58 0 0 1-1.344-.25 13.114 13.114 0 0 1-4.344-2c-.875.156-1.797.25-2.75.25-2.828 0-5.422-.781-7.375-2.063a20.4 20.4 0 0 0 1.375.063c3.359 0 6.531-.969 8.953-2.719C22.562 17.376 24 14.798 24 12.001c0-.812-.125-1.609-.359-2.375C26.282 11.079 28 13.392 28 16.001c0 2.547-1.625 4.797-4.156 6.266z"/></symbol><symbol id="css3" viewBox="0 0 28 28"><path d="M4.297 2h23.516l-4.156 20.828L11.094 27 .188 22.828l1.109-5.563h4.641l-.453 2.297 6.594 2.516 7.594-2.516 1.062-5.297H1.86l.906-4.641h18.891l.594-2.984H3.376z"/></symbol><symbol id="envelope-o" viewBox="0 0 28 28"><path d="M26 23.5v-12a8.408 8.408 0 0 1-1.078 1.031c-2.234 1.719-4.484 3.469-6.656 5.281-1.172.984-2.625 2.188-4.25 2.188h-.031c-1.625 0-3.078-1.203-4.25-2.188-2.172-1.813-4.422-3.563-6.656-5.281A8.411 8.411 0 0 1 2.001 11.5v12c0 .266.234.5.5.5h23c.266 0 .5-.234.5-.5zm0-16.422C26 6.687 26.094 6 25.5 6h-23c-.266 0-.5.234-.5.5 0 1.781.891 3.328 2.297 4.438a980.43 980.43 0 0 1 6.266 4.953c.828.672 2.328 2.109 3.422 2.109h.031c1.094 0 2.594-1.437 3.422-2.109a946.207 946.207 0 0 1 6.266-4.953c1.016-.797 2.297-2.531 2.297-3.859zm2-.578v17c0 1.375-1.125 2.5-2.5 2.5h-23A2.507 2.507 0 0 1 0 23.5v-17C0 5.125 1.125 4 2.5 4h23C26.875 4 28 5.125 28 6.5z"/></symbol><symbol id="envelope" viewBox="0 0 28 28"><path d="M28 11.094V23.5c0 1.375-1.125 2.5-2.5 2.5h-23A2.507 2.507 0 0 1 0 23.5V11.094c.469.516 1 .969 1.578 1.359 2.594 1.766 5.219 3.531 7.766 5.391 1.313.969 2.938 2.156 4.641 2.156h.031c1.703 0 3.328-1.188 4.641-2.156 2.547-1.844 5.172-3.625 7.781-5.391a9.278 9.278 0 0 0 1.563-1.359zM28 6.5c0 1.75-1.297 3.328-2.672 4.281-2.438 1.687-4.891 3.375-7.313 5.078-1.016.703-2.734 2.141-4 2.141h-.031c-1.266 0-2.984-1.437-4-2.141-2.422-1.703-4.875-3.391-7.297-5.078-1.109-.75-2.688-2.516-2.688-3.938 0-1.531.828-2.844 2.5-2.844h23c1.359 0 2.5 1.125 2.5 2.5z"/></symbol><symbol id="facebook" viewBox="0 0 16 28"><path d="M14.984.187v4.125h-2.453c-1.922 0-2.281.922-2.281 2.25v2.953h4.578l-.609 4.625H10.25v11.859H5.469V14.14H1.485V9.515h3.984V6.109C5.469 2.156 7.891 0 11.422 0c1.687 0 3.141.125 3.563.187z"/></symbol><symbol id="github-alt" viewBox="0 0 26 28"><path d="M10 19c0 1.141-.594 3-2 3s-2-1.859-2-3 .594-3 2-3 2 1.859 2 3zm10 0c0 1.141-.594 3-2 3s-2-1.859-2-3 .594-3 2-3 2 1.859 2 3zm2.5 0c0-2.391-1.453-4.5-4-4.5-1.031 0-2.016.187-3.047.328-.812.125-1.625.172-2.453.172s-1.641-.047-2.453-.172C9.531 14.687 8.531 14.5 7.5 14.5c-2.547 0-4 2.109-4 4.5 0 4.781 4.375 5.516 8.188 5.516h2.625c3.813 0 8.188-.734 8.188-5.516zm3.5-2.75c0 1.734-.172 3.578-.953 5.172C22.984 25.594 17.313 26 13.25 26 9.125 26 3.109 25.641.969 21.422.172 19.844 0 17.985 0 16.25c0-2.281.625-4.438 2.125-6.188a8.59 8.59 0 0 1-.422-2.656c0-1.172.266-2.344.797-3.406 2.469 0 4.047 1.078 5.922 2.547A20.895 20.895 0 0 1 13.25 6c1.469 0 2.953.156 4.375.5C19.484 5.047 21.062 4 23.5 4a7.625 7.625 0 0 1 .797 3.406c0 .891-.141 1.781-.422 2.625C25.375 11.797 26 13.969 26 16.25z"/></symbol><symbol id="heart" viewBox="0 0 28 28"><path d="M14 26c-.25 0-.5-.094-.688-.281l-9.75-9.406c-.125-.109-3.563-3.25-3.563-7C-.001 4.735 2.796 2 7.468 2c2.734 0 5.297 2.156 6.531 3.375C15.233 4.156 17.796 2 20.53 2c4.672 0 7.469 2.734 7.469 7.313 0 3.75-3.437 6.891-3.578 7.031l-9.734 9.375a.972.972 0 0 1-.688.281z"/></symbol><symbol id="html5" viewBox="0 0 22 28"><path d="M17.656 9.328l.25-2.734H4.093l.734 8.344h9.562l-.344 3.563-3.078.828-3.063-.828-.203-2.188H4.967l.344 4.344 5.656 1.563h.063v-.016l5.609-1.547.781-8.5H7.357l-.234-2.828h10.531zM0 2h22l-2 22.469L10.969 27 2 24.469z"/></symbol><symbol id="info-circle" viewBox="0 0 24 28"><path d="M16 21.5V19c0-.281-.219-.5-.5-.5H14v-8c0-.281-.219-.5-.5-.5h-5c-.281 0-.5.219-.5.5V13c0 .281.219.5.5.5H10v5H8.5c-.281 0-.5.219-.5.5v2.5c0 .281.219.5.5.5h7c.281 0 .5-.219.5-.5zm-2-14V5c0-.281-.219-.5-.5-.5h-3c-.281 0-.5.219-.5.5v2.5c0 .281.219.5.5.5h3c.281 0 .5-.219.5-.5zM24 14c0 6.625-5.375 12-12 12S0 20.625 0 14 5.375 2 12 2s12 5.375 12 12z"/></symbol><symbol id="linkedin" viewBox="0 0 24 28"><path d="M5.453 9.766V25.25H.297V9.766h5.156zm.328-4.782c.016 1.484-1.109 2.672-2.906 2.672h-.031C1.11 7.656 0 6.468 0 4.984c0-1.516 1.156-2.672 2.906-2.672 1.766 0 2.859 1.156 2.875 2.672zM24 16.375v8.875h-5.141v-8.281c0-2.078-.75-3.5-2.609-3.5-1.422 0-2.266.953-2.641 1.875-.125.344-.172.797-.172 1.266v8.641H8.296c.063-14.031 0-15.484 0-15.484h5.141v2.25h-.031c.672-1.062 1.891-2.609 4.672-2.609 3.391 0 5.922 2.219 5.922 6.969z"/></symbol><symbol id="pause" viewBox="0 0 24 28"><path d="M24 3v22c0 .547-.453 1-1 1h-8c-.547 0-1-.453-1-1V3c0-.547.453-1 1-1h8c.547 0 1 .453 1 1zM10 3v22c0 .547-.453 1-1 1H1c-.547 0-1-.453-1-1V3c0-.547.453-1 1-1h8c.547 0 1 .453 1 1z"/></symbol><symbol id="phone" viewBox="0 0 22 28"><path d="M22 19.375c0 .562-.25 1.656-.484 2.172-.328.766-1.203 1.266-1.906 1.656-.922.5-1.859.797-2.906.797-1.453 0-2.766-.594-4.094-1.078a14.627 14.627 0 0 1-2.734-1.297c-2.656-1.641-5.859-4.844-7.5-7.5a14.627 14.627 0 0 1-1.297-2.734C.595 10.063.001 8.75.001 7.297c0-1.047.297-1.984.797-2.906.391-.703.891-1.578 1.656-1.906.516-.234 1.609-.484 2.172-.484.109 0 .219 0 .328.047.328.109.672.875.828 1.188.5.891.984 1.797 1.5 2.672.25.406.719.906.719 1.391 0 .953-2.828 2.344-2.828 3.187 0 .422.391.969.609 1.344 1.578 2.844 3.547 4.813 6.391 6.391.375.219.922.609 1.344.609.844 0 2.234-2.828 3.187-2.828.484 0 .984.469 1.391.719.875.516 1.781 1 2.672 1.5.313.156 1.078.5 1.188.828.047.109.047.219.047.328z"/></symbol><symbol id="play" viewBox="0 0 22 28"><path d="M21.625 14.484L.875 26.015c-.484.266-.875.031-.875-.516v-23c0-.547.391-.781.875-.516l20.75 11.531c.484.266.484.703 0 .969z"/></symbol><symbol id="search" viewBox="0 0 26 28"><path d="M18 13c0-3.859-3.141-7-7-7s-7 3.141-7 7 3.141 7 7 7 7-3.141 7-7zm8 13c0 1.094-.906 2-2 2a1.96 1.96 0 0 1-1.406-.594l-5.359-5.344a10.971 10.971 0 0 1-6.234 1.937c-6.078 0-11-4.922-11-11s4.922-11 11-11 11 4.922 11 11c0 2.219-.672 4.406-1.937 6.234l5.359 5.359c.359.359.578.875.578 1.406z"/></symbol><symbol id="skype" viewBox="0 0 24 28"><path d="M18.328 16.609c0-2.719-2.641-3.656-4.859-4.156l-1.625-.375c-1.188-.281-2.078-.484-2.078-1.391 0-.828.875-1.203 2.25-1.203 2.453 0 2.5 1.797 4.016 1.797 1.016 0 1.625-.797 1.625-1.703 0-1.797-2.984-2.969-5.938-2.969-2.703 0-5.844 1.172-5.844 4.344 0 2.625 1.75 3.563 4.031 4.109l2.281.562c1.391.344 2.25.5 2.25 1.5 0 .797-.891 1.406-2.266 1.406-2.891 0-3.047-2.406-4.719-2.406-1.094 0-1.578.781-1.578 1.641 0 1.922 2.938 3.484 6.453 3.484 2.938 0 6-1.469 6-4.641zM24 20c0 3.313-2.688 6-6 6a5.976 5.976 0 0 1-3.656-1.25c-.75.156-1.547.25-2.344.25-6.078 0-11-4.922-11-11 0-.797.094-1.594.25-2.344A5.978 5.978 0 0 1 0 8c0-3.313 2.688-6 6-6 1.375 0 2.641.469 3.656 1.25C10.406 3.094 11.203 3 12 3c6.078 0 11 4.922 11 11 0 .797-.094 1.594-.25 2.344A5.978 5.978 0 0 1 24 20z"/></symbol><symbol id="th-large" viewBox="0 0 26 28"><path d="M12 16v6c0 1.094-.906 2-2 2H2c-1.094 0-2-.906-2-2v-6c0-1.094.906-2 2-2h8c1.094 0 2 .906 2 2zm0-12v6c0 1.094-.906 2-2 2H2c-1.094 0-2-.906-2-2V4c0-1.094.906-2 2-2h8c1.094 0 2 .906 2 2zm14 12v6c0 1.094-.906 2-2 2h-8c-1.094 0-2-.906-2-2v-6c0-1.094.906-2 2-2h8c1.094 0 2 .906 2 2zm0-12v6c0 1.094-.906 2-2 2h-8c-1.094 0-2-.906-2-2V4c0-1.094.906-2 2-2h8c1.094 0 2 .906 2 2z"/></symbol><symbol id="thumbs-down" viewBox="0 0 25 28"><path d="M4 9c0 .547-.453 1-1 1-.562 0-1-.453-1-1 0-.562.438-1 1-1 .547 0 1 .438 1 1zm2.5 8V7c0-.547-.453-1-1-1H1c-.547 0-1 .453-1 1v10c0 .547.453 1 1 1h4.5c.547 0 1-.453 1-1zm17.641-2.328c.531.594.859 1.5.859 2.328-.016 1.625-1.375 3-3 3h-4.328c.125.5.281.656.453 1 .406.812.875 1.719.875 3 0 1.203 0 4-3.5 4a.99.99 0 0 1-.703-.297c-.672-.656-.859-1.625-1.031-2.547-.187-.906-.359-1.844-.969-2.453-.484-.484-1.016-1.156-1.578-1.875-.688-.906-2.188-2.766-2.766-2.812-.516-.047-.953-.484-.953-1V7c0-.547.469-.984 1-1 .547-.016 1.484-.344 2.469-.688 1.687-.578 3.797-1.313 6.031-1.313h2.016c1.375.016 2.406.422 3.078 1.219.594.703.859 1.656.766 2.828.391.375.688.891.844 1.469.172.625.172 1.25 0 1.828.469.625.703 1.359.672 2.141 0 .219-.063.688-.234 1.188z"/></symbol><symbol id="thumbs-up" viewBox="0 0 25 28"><path d="M4 21c0-.547-.453-1-1-1-.562 0-1 .453-1 1 0 .562.438 1 1 1 .547 0 1-.438 1-1zm2.5-8v10c0 .547-.453 1-1 1H1c-.547 0-1-.453-1-1V13c0-.547.453-1 1-1h4.5c.547 0 1 .453 1 1zM25 13c0 .828-.328 1.719-.859 2.328.172.5.234.969.234 1.188a3.303 3.303 0 0 1-.672 2.141 3.301 3.301 0 0 1 0 1.828 3.193 3.193 0 0 1-.844 1.469c.094 1.172-.172 2.125-.766 2.828-.672.797-1.703 1.203-3.078 1.219h-2.016c-2.234 0-4.344-.734-6.031-1.313-.984-.344-1.922-.672-2.469-.688-.531-.016-1-.453-1-1V12.984c0-.516.438-.953.953-1 .578-.047 2.078-1.906 2.766-2.812.562-.719 1.094-1.391 1.578-1.875.609-.609.781-1.547.969-2.453.172-.922.359-1.891 1.031-2.547A.996.996 0 0 1 15.499 2c3.5 0 3.5 2.797 3.5 4 0 1.281-.453 2.188-.875 3-.172.344-.328.5-.453 1h4.328c1.625 0 3 1.375 3 3z"/></symbol><symbol id="twitter" viewBox="0 0 26 28"><path d="M25.312 6.375a10.85 10.85 0 0 1-2.531 2.609c.016.219.016.438.016.656 0 6.672-5.078 14.359-14.359 14.359-2.859 0-5.516-.828-7.75-2.266.406.047.797.063 1.219.063 2.359 0 4.531-.797 6.266-2.156a5.056 5.056 0 0 1-4.719-3.5c.313.047.625.078.953.078.453 0 .906-.063 1.328-.172a5.048 5.048 0 0 1-4.047-4.953v-.063a5.093 5.093 0 0 0 2.281.641 5.044 5.044 0 0 1-2.25-4.203c0-.938.25-1.797.688-2.547a14.344 14.344 0 0 0 10.406 5.281 5.708 5.708 0 0 1-.125-1.156 5.045 5.045 0 0 1 5.047-5.047 5.03 5.03 0 0 1 3.687 1.594 9.943 9.943 0 0 0 3.203-1.219 5.032 5.032 0 0 1-2.219 2.781c1.016-.109 2-.391 2.906-.781z"/></symbol><symbol id="user" viewBox="0 0 20 28"><path d="M20 21.859C20 24.14 18.5 26 16.672 26H3.328C1.5 26 0 24.141 0 21.859 0 17.75 1.016 13 5.109 13a6.979 6.979 0 0 0 9.782 0C18.985 13 20 17.75 20 21.859zM16 8c0 3.313-2.688 6-6 6s-6-2.688-6-6 2.688-6 6-6 6 2.688 6 6z"/></symbol><symbol id="volume-off" viewBox="0 0 12 28"><path d="M12 5.5v17c0 .547-.453 1-1 1a.99.99 0 0 1-.703-.297L5.094 18H1c-.547 0-1-.453-1-1v-6c0-.547.453-1 1-1h4.094l5.203-5.203A.996.996 0 0 1 11 4.5c.547 0 1 .453 1 1z"/></symbol><symbol id="wordpress" viewBox="0 0 28 28"><path d="M1.984 14c0-1.734.375-3.391 1.047-4.891l5.734 15.703c-4.016-1.953-6.781-6.062-6.781-10.813zm20.125-.609c0 1.031-.422 2.219-.922 3.891l-1.188 4-4.344-12.906s.719-.047 1.375-.125c.641-.078.562-1.031-.078-.984-1.953.141-3.203.156-3.203.156s-1.172-.016-3.156-.156c-.656-.047-.734.938-.078.984.609.063 1.25.125 1.25.125l1.875 5.125-2.625 7.875-4.375-13s.719-.047 1.375-.125c.641-.078.562-1.031-.078-.984-1.937.141-3.203.156-3.203.156-.219 0-.484-.016-.766-.016a11.966 11.966 0 0 1 10.031-5.422c3.125 0 5.969 1.203 8.109 3.156h-.156c-1.172 0-2.016 1.016-2.016 2.125 0 .984.578 1.813 1.188 2.812.469.797.984 1.828.984 3.313zm-7.906 1.656l3.703 10.109a.59.59 0 0 0 .078.172c-1.25.438-2.578.688-3.984.688-1.172 0-2.312-.172-3.391-.5zm10.328-6.813A11.98 11.98 0 0 1 26.015 14c0 4.438-2.406 8.297-5.984 10.375l3.672-10.594c.609-1.75.922-3.094.922-4.312 0-.438-.031-.844-.094-1.234zM14 0c7.719 0 14 6.281 14 14s-6.281 14-14 14S0 21.719 0 14 6.281 0 14 0zm0 27.359c7.359 0 13.359-6 13.359-13.359S21.359.641 14 .641.641 6.641.641 14s6 13.359 13.359 13.359z"/></symbol></svg>